<?xml version="1.0" encoding="UTF-8"?>
<svg fill="#fff" width="700pt" height="700pt" version="1.1" viewBox="0 0 700 700" xmlns="http://www.w3.org/2000/svg">
 <g>
  <path d="m350 169.98c-66.074 0-130.28 29.957-178.2 84.703-9.5078 10.859-26.016 11.957-36.875 2.4492-10.863-9.5039-11.957-26.016-2.4531-36.875 57.027-65.145 135.18-102.54 217.53-102.54s160.5 37.398 217.53 102.54c9.5078 10.859 8.4102 27.371-2.4492 36.875-10.859 9.5078-27.371 8.4102-36.879-2.4492-47.93-54.746-112.12-84.703-178.2-84.703z" fill-rule="evenodd"/>
  <path d="m350 278.77c-41.883 0-83.086 19.5-114.19 56.016-9.3594 10.988-25.852 12.309-36.84 2.9492-10.988-9.3594-12.309-25.852-2.9492-36.84 40.02-46.98 95.277-74.391 153.98-74.391s113.96 27.41 153.98 74.391c9.3594 10.988 8.0391 27.48-2.9492 36.84-10.984 9.3594-27.48 8.0391-36.84-2.9492-31.102-36.516-72.305-56.016-114.19-56.016z" fill-rule="evenodd"/>
  <path d="m406 396.14c0 30.926-25.07 56-56 56s-56-25.074-56-56c0-30.93 25.07-56 56-56s56 25.07 56 56z"/>
 </g>
</svg>
