<?xml version="1.0" encoding="UTF-8" standalone="no"?>
<svg
   width="700pt"
   height="700pt"
   version="1.1"
   viewBox="0 0 700 700"
   id="svg437"
   sodipodi:docname="locate_icon.svg"
   inkscape:version="1.1.2 (b8e25be833, 2022-02-05)"
   xmlns:inkscape="http://www.inkscape.org/namespaces/inkscape"
   xmlns:sodipodi="http://sodipodi.sourceforge.net/DTD/sodipodi-0.dtd"
   xmlns:xlink="http://www.w3.org/1999/xlink"
   xmlns="http://www.w3.org/2000/svg"
   xmlns:svg="http://www.w3.org/2000/svg">
  <sodipodi:namedview
     id="namedview439"
     pagecolor="#ffffff"
     bordercolor="#666666"
     borderopacity="1.0"
     inkscape:pageshadow="2"
     inkscape:pageopacity="0.0"
     inkscape:pagecheckerboard="0"
     inkscape:document-units="pt"
     showgrid="false"
     inkscape:snap-bbox="true"
     inkscape:zoom="0.49320698"
     inkscape:cx="138.88692"
     inkscape:cy="476.47339"
     inkscape:window-width="1600"
     inkscape:window-height="837"
     inkscape:window-x="-8"
     inkscape:window-y="-8"
     inkscape:window-maximized="1"
     inkscape:current-layer="layer1" />
  <defs
     id="defs357">
    <symbol
       id="v"
       overflow="visible">
      <path
         d="m18.766-1.125c-0.96875 0.5-1.9805 0.875-3.0312 1.125-1.043 0.25781-2.1367 0.39062-3.2812 0.39062-3.3984 0-6.0898-0.94531-8.0781-2.8438-1.9922-1.9062-2.9844-4.4844-2.9844-7.7344 0-3.2578 0.99219-5.8359 2.9844-7.7344 1.9883-1.9062 4.6797-2.8594 8.0781-2.8594 1.1445 0 2.2383 0.13281 3.2812 0.39062 1.0508 0.25 2.0625 0.625 3.0312 1.125v4.2188c-0.98047-0.65625-1.9453-1.1406-2.8906-1.4531-0.94922-0.3125-1.9492-0.46875-3-0.46875-1.875 0-3.3516 0.60547-4.4219 1.8125-1.0742 1.1992-1.6094 2.8555-1.6094 4.9688 0 2.1055 0.53516 3.7617 1.6094 4.9688 1.0703 1.1992 2.5469 1.7969 4.4219 1.7969 1.0508 0 2.0508-0.14844 3-0.45312 0.94531-0.3125 1.9102-0.80078 2.8906-1.4688z"
         id="path291" />
    </symbol>
    <symbol
       id="c"
       overflow="visible">
      <path
         d="m13.734-11.141c-0.4375-0.19531-0.87109-0.34375-1.2969-0.4375-0.41797-0.10156-0.83984-0.15625-1.2656-0.15625-1.2617 0-2.2305 0.40625-2.9062 1.2188-0.67969 0.80469-1.0156 1.9531-1.0156 3.4531v7.0625h-4.8906v-15.312h4.8906v2.5156c0.625-1 1.3438-1.7266 2.1562-2.1875 0.82031-0.46875 1.8008-0.70312 2.9375-0.70312 0.16406 0 0.34375 0.011719 0.53125 0.03125 0.19531 0.011719 0.47656 0.039062 0.84375 0.078125z"
         id="path294" />
    </symbol>
    <symbol
       id="a"
       overflow="visible">
      <path
         d="m17.641-7.7031v1.4062h-11.453c0.125 1.1484 0.53906 2.0078 1.25 2.5781 0.70703 0.57422 1.7031 0.85938 2.9844 0.85938 1.0312 0 2.082-0.14844 3.1562-0.45312 1.082-0.3125 2.1914-0.77344 3.3281-1.3906v3.7656c-1.1562 0.4375-2.3125 0.76562-3.4688 0.98438-1.1562 0.22656-2.3125 0.34375-3.4688 0.34375-2.7734 0-4.9297-0.70312-6.4688-2.1094-1.5312-1.4062-2.2969-3.3789-2.2969-5.9219 0-2.5 0.75391-4.4609 2.2656-5.8906 1.5078-1.4375 3.582-2.1562 6.2188-2.1562 2.4062 0 4.332 0.73047 5.7812 2.1875 1.4453 1.4492 2.1719 3.3828 2.1719 5.7969zm-5.0312-1.625c0-0.92578-0.27344-1.6719-0.8125-2.2344-0.54297-0.57031-1.25-0.85938-2.125-0.85938-0.94922 0-1.7188 0.26562-2.3125 0.79688s-0.96484 1.2969-1.1094 2.2969z"
         id="path297" />
    </symbol>
    <symbol
       id="f"
       overflow="visible">
      <path
         d="m9.2188-6.8906c-1.0234 0-1.793 0.17188-2.3125 0.51562-0.51172 0.34375-0.76562 0.85547-0.76562 1.5312 0 0.625 0.20703 1.1172 0.625 1.4688 0.41406 0.34375 0.98828 0.51562 1.7188 0.51562 0.92578 0 1.7031-0.32812 2.3281-0.98438 0.63281-0.66406 0.95312-1.4922 0.95312-2.4844v-0.5625zm7.4688-1.8438v8.7344h-4.9219v-2.2656c-0.65625 0.92969-1.3984 1.6055-2.2188 2.0312-0.82422 0.41406-1.8242 0.625-3 0.625-1.5859 0-2.8711-0.45703-3.8594-1.375-0.99219-0.92578-1.4844-2.1289-1.4844-3.6094 0-1.7891 0.61328-3.1016 1.8438-3.9375 1.2383-0.84375 3.1797-1.2656 5.8281-1.2656h2.8906v-0.39062c0-0.76953-0.30859-1.332-0.92188-1.6875-0.61719-0.36328-1.5703-0.54688-2.8594-0.54688-1.0547 0-2.0312 0.10547-2.9375 0.3125-0.89844 0.21094-1.7305 0.52344-2.5 0.9375v-3.7344c1.0391-0.25 2.0859-0.44141 3.1406-0.57812 1.0625-0.13281 2.125-0.20312 3.1875-0.20312 2.7578 0 4.75 0.54688 5.9688 1.6406 1.2266 1.0859 1.8438 2.8555 1.8438 5.3125z"
         id="path300" />
    </symbol>
    <symbol
       id="b"
       overflow="visible">
      <path
         d="m7.7031-19.656v4.3438h5.0469v3.5h-5.0469v6.5c0 0.71094 0.14062 1.1875 0.42188 1.4375s0.83594 0.375 1.6719 0.375h2.5156v3.5h-4.1875c-1.9375 0-3.3125-0.39844-4.125-1.2031-0.80469-0.8125-1.2031-2.1797-1.2031-4.1094v-6.5h-2.4219v-3.5h2.4219v-4.3438z"
         id="path303" />
    </symbol>
    <symbol
       id="j"
       overflow="visible">
      <path
         d="m12.766-13.078v-8.2031h4.9219v21.281h-4.9219v-2.2188c-0.66797 0.90625-1.4062 1.5703-2.2188 1.9844s-1.7578 0.625-2.8281 0.625c-1.8867 0-3.4336-0.75-4.6406-2.25-1.2109-1.5-1.8125-3.4258-1.8125-5.7812 0-2.3633 0.60156-4.2969 1.8125-5.7969 1.207-1.5 2.7539-2.25 4.6406-2.25 1.0625 0 2 0.21484 2.8125 0.64062 0.82031 0.42969 1.5664 1.0859 2.2344 1.9688zm-3.2188 9.9219c1.0391 0 1.8359-0.37891 2.3906-1.1406 0.55078-0.76953 0.82812-1.8828 0.82812-3.3438 0-1.457-0.27734-2.5664-0.82812-3.3281-0.55469-0.76953-1.3516-1.1562-2.3906-1.1562-1.043 0-1.8398 0.38672-2.3906 1.1562-0.55469 0.76172-0.82812 1.8711-0.82812 3.3281 0 1.4609 0.27344 2.5742 0.82812 3.3438 0.55078 0.76172 1.3477 1.1406 2.3906 1.1406z"
         id="path306" />
    </symbol>
    <symbol
       id="i"
       overflow="visible">
      <path
         d="m10.5-3.1562c1.0508 0 1.8516-0.37891 2.4062-1.1406 0.55078-0.76953 0.82812-1.8828 0.82812-3.3438 0-1.457-0.27734-2.5664-0.82812-3.3281-0.55469-0.76953-1.3555-1.1562-2.4062-1.1562-1.0547 0-1.8594 0.38672-2.4219 1.1562-0.55469 0.77344-0.82812 1.8828-0.82812 3.3281 0 1.4492 0.27344 2.5586 0.82812 3.3281 0.5625 0.77344 1.3672 1.1562 2.4219 1.1562zm-3.25-9.9219c0.67578-0.88281 1.4219-1.5391 2.2344-1.9688 0.82031-0.42578 1.7656-0.64062 2.8281-0.64062 1.8945 0 3.4453 0.75 4.6562 2.25 1.207 1.5 1.8125 3.4336 1.8125 5.7969 0 2.3555-0.60547 4.2812-1.8125 5.7812-1.2109 1.5-2.7617 2.25-4.6562 2.25-1.0625 0-2.0078-0.21094-2.8281-0.625-0.8125-0.42578-1.5586-1.0859-2.2344-1.9844v2.2188h-4.8906v-21.281h4.8906z"
         id="path309" />
    </symbol>
    <symbol
       id="e"
       overflow="visible">
      <path
         d="m0.34375-15.312h4.8906l4.125 10.391 3.5-10.391h4.8906l-6.4375 16.766c-0.64844 1.6953-1.4023 2.8828-2.2656 3.5625-0.86719 0.6875-2 1.0312-3.4062 1.0312h-2.8438v-3.2188h1.5312c0.83203 0 1.4375-0.13672 1.8125-0.40625 0.38281-0.26172 0.67969-0.73047 0.89062-1.4062l0.14062-0.42188z"
         id="path312" />
    </symbol>
    <symbol
       id="h"
       overflow="visible">
      <path
         d="m7.8281-16.438v12.453h1.8906c2.1562 0 3.8008-0.53125 4.9375-1.5938 1.1328-1.0625 1.7031-2.6133 1.7031-4.6562 0-2.0195-0.57031-3.5547-1.7031-4.6094-1.125-1.0625-2.7734-1.5938-4.9375-1.5938zm-5.25-3.9688h5.5469c3.0938 0 5.3984 0.21875 6.9219 0.65625 1.5195 0.4375 2.8203 1.1875 3.9062 2.25 0.95703 0.91797 1.6641 1.9805 2.125 3.1875 0.46875 1.1992 0.70312 2.5586 0.70312 4.0781 0 1.543-0.23438 2.918-0.70312 4.125-0.46094 1.2109-1.168 2.2773-2.125 3.2031-1.0938 1.0547-2.4062 1.8047-3.9375 2.25-1.5312 0.4375-3.8281 0.65625-6.8906 0.65625h-5.5469z"
         id="path315" />
    </symbol>
    <symbol
       id="u"
       overflow="visible">
      <path
         d="m2.3594-15.312h4.8906v15.312h-4.8906zm0-5.9688h4.8906v4h-4.8906z"
         id="path318" />
    </symbol>
    <symbol
       id="t"
       overflow="visible">
      <path
         d="m2.3594-21.281h4.8906v21.281h-4.8906z"
         id="path321" />
    </symbol>
    <symbol
       id="g"
       overflow="visible">
      <path
         d="m2.5781-20.406h8.7344c2.5938 0 4.582 0.57812 5.9688 1.7344 1.3945 1.1484 2.0938 2.7891 2.0938 4.9219 0 2.1367-0.69922 3.7812-2.0938 4.9375-1.3867 1.1562-3.375 1.7344-5.9688 1.7344h-3.4844v7.0781h-5.25zm5.25 3.8125v5.7031h2.9219c1.0195 0 1.8047-0.25 2.3594-0.75 0.5625-0.5 0.84375-1.2031 0.84375-2.1094 0-0.91406-0.28125-1.6172-0.84375-2.1094-0.55469-0.48828-1.3398-0.73438-2.3594-0.73438z"
         id="path324" />
    </symbol>
    <symbol
       id="s"
       overflow="visible">
      <path
         d="m2.5781-20.406h6.6875l4.6562 10.922 4.6719-10.922h6.6875v20.406h-4.9844v-14.938l-4.7031 11.016h-3.3281l-4.7031-11.016v14.938h-4.9844z"
         id="path327" />
    </symbol>
    <symbol
       id="r"
       overflow="visible">
      <path
         d="m12.422-21.281v3.2188h-2.7031c-0.6875 0-1.1719 0.125-1.4531 0.375-0.27344 0.25-0.40625 0.6875-0.40625 1.3125v1.0625h4.1875v3.5h-4.1875v11.812h-4.8906v-11.812h-2.4375v-3.5h2.4375v-1.0625c0-1.6641 0.46094-2.8984 1.3906-3.7031 0.92578-0.80078 2.3672-1.2031 4.3281-1.2031z"
         id="path330" />
    </symbol>
    <symbol
       id="d"
       overflow="visible">
      <path
         d="m9.6406-12.188c-1.0859 0-1.9141 0.39062-2.4844 1.1719-0.57422 0.78125-0.85938 1.9062-0.85938 3.375s0.28516 2.5938 0.85938 3.375c0.57031 0.77344 1.3984 1.1562 2.4844 1.1562 1.0625 0 1.875-0.38281 2.4375-1.1562 0.57031-0.78125 0.85938-1.9062 0.85938-3.375s-0.28906-2.5938-0.85938-3.375c-0.5625-0.78125-1.375-1.1719-2.4375-1.1719zm0-3.5c2.6328 0 4.6914 0.71484 6.1719 2.1406 1.4766 1.418 2.2188 3.3867 2.2188 5.9062 0 2.5117-0.74219 4.4805-2.2188 5.9062-1.4805 1.418-3.5391 2.125-6.1719 2.125-2.6484 0-4.7148-0.70703-6.2031-2.125-1.4922-1.4258-2.2344-3.3945-2.2344-5.9062 0-2.5195 0.74219-4.4883 2.2344-5.9062 1.4883-1.4258 3.5547-2.1406 6.2031-2.1406z"
         id="path333" />
    </symbol>
    <symbol
       id="q"
       overflow="visible">
      <path
         d="m16.547-12.766c0.61328-0.94531 1.3477-1.6719 2.2031-2.1719 0.85156-0.5 1.7891-0.75 2.8125-0.75 1.7578 0 3.0977 0.54688 4.0156 1.6406 0.92578 1.0859 1.3906 2.6562 1.3906 4.7188v9.3281h-4.9219v-7.9844-0.35938c0.007813-0.13281 0.015625-0.32031 0.015625-0.5625 0-1.082-0.16406-1.8633-0.48438-2.3438-0.3125-0.48828-0.82422-0.73438-1.5312-0.73438-0.92969 0-1.6484 0.38672-2.1562 1.1562-0.51172 0.76172-0.77344 1.8672-0.78125 3.3125v7.5156h-4.9219v-7.9844c0-1.6953-0.14844-2.7852-0.4375-3.2656-0.29297-0.48828-0.8125-0.73438-1.5625-0.73438-0.9375 0-1.6641 0.38672-2.1719 1.1562-0.51172 0.76172-0.76562 1.8594-0.76562 3.2969v7.5312h-4.9219v-15.312h4.9219v2.2344c0.60156-0.86328 1.2891-1.5156 2.0625-1.9531 0.78125-0.4375 1.6406-0.65625 2.5781-0.65625 1.0625 0 2 0.25781 2.8125 0.76562 0.8125 0.51172 1.4258 1.2305 1.8438 2.1562z"
         id="path336" />
    </symbol>
    <symbol
       id="p"
       overflow="visible">
      <path
         d="m17.75-9.3281v9.3281h-4.9219v-7.1094c0-1.3438-0.03125-2.2656-0.09375-2.7656s-0.16797-0.86719-0.3125-1.1094c-0.1875-0.3125-0.44922-0.55469-0.78125-0.73438-0.32422-0.17578-0.69531-0.26562-1.1094-0.26562-1.0234 0-1.8242 0.39844-2.4062 1.1875-0.58594 0.78125-0.875 1.8711-0.875 3.2656v7.5312h-4.8906v-21.281h4.8906v8.2031c0.73828-0.88281 1.5195-1.5391 2.3438-1.9688 0.83203-0.42578 1.75-0.64062 2.75-0.64062 1.7695 0 3.1133 0.54688 4.0312 1.6406 0.91406 1.0859 1.375 2.6562 1.375 4.7188z"
         id="path339" />
    </symbol>
    <symbol
       id="o"
       overflow="visible">
      <path
         d="m2.5781-20.406h5.875l7.4219 14v-14h4.9844v20.406h-5.875l-7.4219-14v14h-4.9844z"
         id="path342" />
    </symbol>
    <symbol
       id="n"
       overflow="visible">
      <path
         d="m2.1875-5.9688v-9.3438h4.9219v1.5312c0 0.83594-0.007813 1.875-0.015625 3.125-0.011719 1.25-0.015625 2.0859-0.015625 2.5 0 1.2422 0.03125 2.1328 0.09375 2.6719 0.070313 0.54297 0.17969 0.93359 0.32812 1.1719 0.20703 0.32422 0.47266 0.57422 0.79688 0.75 0.32031 0.16797 0.69141 0.25 1.1094 0.25 1.0195 0 1.8203-0.39062 2.4062-1.1719 0.58203-0.78125 0.875-1.8672 0.875-3.2656v-7.5625h4.8906v15.312h-4.8906v-2.2188c-0.74219 0.89844-1.5234 1.5586-2.3438 1.9844-0.82422 0.41406-1.7344 0.625-2.7344 0.625-1.7617 0-3.1055-0.53906-4.0312-1.625-0.92969-1.082-1.3906-2.6602-1.3906-4.7344z"
         id="path345" />
    </symbol>
    <symbol
       id="m"
       overflow="visible">
      <path
         d="m17.75-9.3281v9.3281h-4.9219v-7.1406c0-1.3203-0.03125-2.2344-0.09375-2.7344s-0.16797-0.86719-0.3125-1.1094c-0.1875-0.3125-0.44922-0.55469-0.78125-0.73438-0.32422-0.17578-0.69531-0.26562-1.1094-0.26562-1.0234 0-1.8242 0.39844-2.4062 1.1875-0.58594 0.78125-0.875 1.8711-0.875 3.2656v7.5312h-4.8906v-15.312h4.8906v2.2344c0.73828-0.88281 1.5195-1.5391 2.3438-1.9688 0.83203-0.42578 1.75-0.64062 2.75-0.64062 1.7695 0 3.1133 0.54688 4.0312 1.6406 0.91406 1.0859 1.375 2.6562 1.375 4.7188z"
         id="path348" />
    </symbol>
    <symbol
       id="l"
       overflow="visible">
      <path
         d="m2.3594-15.312h4.8906v15.031c0 2.0508-0.49609 3.6172-1.4844 4.7031-0.98047 1.082-2.4062 1.625-4.2812 1.625h-2.4219v-3.2188h0.85938c0.92578 0 1.5625-0.21094 1.9062-0.625 0.35156-0.41797 0.53125-1.2461 0.53125-2.4844zm0-5.9688h4.8906v4h-4.8906z"
         id="path351" />
    </symbol>
    <symbol
       id="k"
       overflow="visible">
      <path
         d="m14.719-14.828v3.9844c-0.65625-0.45703-1.3242-0.79688-2-1.0156-0.66797-0.21875-1.3594-0.32812-2.0781-0.32812-1.3672 0-2.4336 0.40234-3.2031 1.2031-0.76172 0.79297-1.1406 1.9062-1.1406 3.3438 0 1.4297 0.37891 2.543 1.1406 3.3438 0.76953 0.79297 1.8359 1.1875 3.2031 1.1875 0.75781 0 1.4844-0.10938 2.1719-0.32812 0.6875-0.22656 1.3203-0.56641 1.9062-1.0156v4c-0.76172 0.28125-1.5391 0.48828-2.3281 0.625-0.78125 0.14453-1.5742 0.21875-2.375 0.21875-2.7617 0-4.9219-0.70703-6.4844-2.125-1.5547-1.4141-2.3281-3.3828-2.3281-5.9062 0-2.5312 0.77344-4.5039 2.3281-5.9219 1.5625-1.4141 3.7227-2.125 6.4844-2.125 0.80078 0 1.5938 0.074219 2.375 0.21875 0.78125 0.13672 1.5547 0.35156 2.3281 0.64062z"
         id="path354" />
    </symbol>
  </defs>
  <g
     id="g435">
    <path
       id="path359"
       style="stroke-width:1.33333"
       transform="scale(0.75)"
       d="m 386.25391,133.44727 c -22.448,0 -44.10001,8.31748 -60.77735,23.34375 -16.67733,15.02666 -27.19605,35.69801 -29.52539,58.02734 -2.33333,22.328 3.69225,44.72433 16.90625,62.875 h 0.74219 l 63.46875,100.125 c 2.04693,3.2188 5.59567,5.16274 9.4082,5.15234 3.82814,-0.005 7.39584,-1.94394 9.48438,-5.15234 l 63.69336,-100.13086 -0.006,0.006 c 13.2188,-18.15067 19.24011,-40.547 16.91211,-62.875 -2.33334,-22.328 -12.85472,-43.00068 -29.53125,-58.02734 -16.67734,-15.02667 -38.32739,-23.34375 -60.77539,-23.34375 z m 0.44531,22.01757 c 18.172,0 35.59741,7.22346 48.4414,20.07813 12.84376,12.85933 20.04735,30.29089 20.02735,48.46289 0.0156,14.83333 -4.83383,29.26036 -13.8125,41.06836 0,0.59896 -0.74478,1.19394 -1.04688,1.79297 l -53.60937,84.07226 -53.53516,-84.14453 c -0.30208,-0.66666 -0.67643,-1.29303 -1.11914,-1.87109 -8.92186,-11.7708 -13.74957,-26.14402 -13.74023,-40.91602 -0.0156,-18.16133 7.17564,-35.58416 20.0039,-48.4375 12.82294,-12.85413 30.23463,-20.08751 48.39063,-20.10351 z" />
    <path
       d="m290.02 201.88c9.0234 0 17.676-3.5859 24.051-9.9688 6.375-6.3828 9.9531-15.039 9.9414-24.059-0.011719-9.0234-3.6055-17.672-9.9961-24.039s-15.047-9.9375-24.07-9.918c-9.0234 0.019531-17.664 3.625-24.027 10.023-6.3633 6.3984-9.918 15.059-9.8906 24.082 0.03125 8.9961 3.625 17.613 9.9961 23.965 6.3711 6.3477 15 9.9141 23.996 9.9141zm0-51.184c4.5547 0 8.9219 1.8086 12.145 5.0234 3.2227 3.2148 5.0391 7.5781 5.0469 12.133 0.011718 4.5508-1.7852 8.9219-4.9961 12.152-3.207 3.2305-7.5664 5.0547-12.121 5.0742-4.5508 0.019531-8.9258-1.7656-12.164-4.9688-3.2383-3.1992-5.0703-7.5547-5.1016-12.109-0.03125-4.5781 1.7695-8.9805 4.9961-12.23 3.2266-3.2461 7.6172-5.0742 12.195-5.0742z"
       id="path361" />
    <path
       id="path363"
       style="stroke-width:1.33333"
       transform="scale(0.75)"
       d="m 424.35742,371.18555 c -0.10798,-0.0159 -0.21486,-0.01 -0.32226,0.002 0.0301,0.0424 0.0717,0.0869 0.10546,0.13086 0.32374,-0.0494 0.47034,-0.0956 0.2168,-0.13281 z m -0.95312,0.13476 c -0.0319,0.009 -0.0638,0.0148 -0.0957,0.0234 0.007,0.0259 0.005,0.0451 0.0137,0.0762 0.0251,-0.003 0.0436,-0.007 0.0684,-0.01 0.005,-0.0386 0.009,-0.0549 0.0137,-0.0899 z m 1.62109,0.75391 c 0.17789,0.12228 0.26978,0.18872 0.4668,0.31836 0.002,-0.0465 0.003,-0.089 0.006,-0.13867 -0.10433,-0.0824 -0.0703,-0.0652 -0.2168,-0.17774 -0.0846,-0.005 -0.17093,0.001 -0.25586,-0.002 z m -72.32031,42.08594 c -0.005,0.002 -0.009,0.005 -0.0137,0.008 0.005,0.0156 0.0104,0.0312 0.0156,0.0469 -2.6e-4,-0.0182 -0.002,-0.0364 -0.002,-0.0547 z m -25.13867,4.58593 c 1.46413,0.3157 2.94438,0.60557 4.42968,0.88672 0.0308,-0.0602 0.0652,-0.11837 0.0977,-0.17773 -10e-4,-0.013 -0.002,-0.026 -0.004,-0.0391 -1.50678,-0.22953 -3.01258,-0.46485 -4.52343,-0.66993 z" />
    <path
       id="path365"
       style="stroke-width:1.33333"
       transform="scale(0.75)"
       d="m 387.28125,43.179688 c -66.24533,0.588546 -129.54599,27.468668 -175.97266,74.728512 -45.12,45.31734 -71.14098,106.21315 -72.70898,170.14649 -1.56773,63.932 21.43725,126.03181 64.28125,173.50781 42.844,47.47333 102.26601,76.71327 166.02734,81.69727 63.58904,4.96626 126.65393,-14.58698 176.29883,-54.625 0.0586,-0.0561 0.12188,-0.0958 0.18359,-0.14063 0.10132,-0.19236 0.28087,-0.35794 0.56055,-0.45117 0.16946,-0.0565 0.33904,-0.11743 0.50977,-0.16992 0.005,-0.0286 0.009,-0.0573 0.0137,-0.0859 0.26617,-0.1307 0.20611,-0.0991 0.34375,-0.16406 0.0113,-0.0158 0.0184,-0.0256 0.0293,-0.041 -0.002,-0.0137 -0.006,-0.0272 -0.008,-0.041 0.005,-0.0107 0.012,-0.0208 0.0176,-0.0312 -0.0314,0.007 -0.062,0.0153 -0.0937,0.0215 -0.0173,0.003 0.0128,-0.0343 0.0234,-0.0488 0.074,-0.10608 0.28113,-0.42797 0.23633,-0.30664 -0.043,0.11651 -0.10824,0.22389 -0.16602,0.33399 0.0157,-0.004 0.0315,-0.008 0.0469,-0.0117 0.79024,-1.12797 0.46623,-0.99409 0.95898,-0.97071 10e-4,-4.6e-4 0.003,4.7e-4 0.004,0 0.0603,0.003 0.12611,0.006 0.21484,0.002 0.0581,-0.002 -0.11343,-0.0122 -0.17383,-0.0176 0.0886,-0.0363 0.17751,-0.0719 0.26758,-0.10352 0.0194,-0.0582 0.038,-0.11742 0.0605,-0.17382 0.23382,-0.17481 0.4843,-0.42144 0.77148,-0.5586 0.0141,-0.0214 0.0238,-0.0433 0.0391,-0.0644 0.0938,-0.13089 0.34576,-0.15501 0.55859,-0.1543 0.042,-0.0484 0.0775,-0.0968 0.125,-0.14453 0.0121,-0.0122 0.0291,-0.0242 0.0488,-0.0352 0.0119,-0.02 0.0229,-0.0408 0.0351,-0.0605 0.5857,-0.39652 0.0666,-0.0555 0.0215,0.0195 -0.002,0.004 -0.005,0.0134 -0.008,0.0176 0.027,-0.0111 0.0559,-0.0174 0.0859,-0.0254 0.003,-0.01 0.01,-0.0272 0.0117,-0.0352 0.0299,-0.0106 0.0621,-0.0177 0.0937,-0.0254 0.0232,-0.0224 0.045,-0.0461 0.0684,-0.0684 0.0809,-0.1513 0.16034,-0.30304 0.26563,-0.4375 0.0348,-0.0445 0.33509,-0.19077 0.5625,-0.29688 0.10376,-0.1502 0.20304,-0.30518 0.33007,-0.43554 0.0904,-0.0928 0.22004,-0.13472 0.32618,-0.20899 0.0118,-0.008 0.24271,-0.21022 0.24804,-0.21289 0.0625,-0.0372 0.12615,-0.0694 0.19141,-0.10156 0.0949,-0.12689 0.18867,-0.25389 0.30078,-0.36523 0.003,-0.003 0.35079,-0.2229 0.43945,-0.2793 0.26442,-0.19072 0.57733,-0.30125 0.88282,-0.4043 0.28033,-0.54846 0.20226,0.0106 0.89062,-0.17383 0.10256,-0.0567 0.20604,-0.11052 0.29297,-0.18554 0.0614,-0.0529 -0.16459,-0.008 -0.24219,0.0156 0.0239,-0.02 0.0522,-0.0292 0.0762,-0.0488 -0.27586,0.0447 -0.612,0.10573 -0.79296,0.11133 -0.0212,6.7e-4 0.0123,-0.0435 0.0273,-0.0586 0.12185,-0.12228 0.25156,-0.23693 0.3789,-0.35352 0.22615,-0.41041 0.31087,-0.42266 0.76172,-0.73437 0.82022,-0.28108 0.13237,-0.058 0.16797,-0.0879 0.15828,-0.13299 0.32062,-0.26151 0.48047,-0.39258 0.0767,-0.0366 0.1534,-0.0697 0.22852,-0.10938 0.008,-0.0197 0.0169,-0.0389 0.0254,-0.0586 0.004,-0.008 -0.0103,0.0234 -0.004,0.0254 0.0227,0.005 0.0519,-0.0452 0,0.0234 -0.007,0.004 -0.0145,0.006 -0.0215,0.01 -0.0425,0.0992 -0.0827,0.19762 -0.125,0.29688 0.035,0.71771 -0.0512,-0.21669 0.70898,-0.91016 0.0773,-0.0703 0.18923,-0.0528 0.30274,-0.0273 0.10155,-0.0757 0.15263,-0.1147 0.22851,-0.17188 0.0313,-0.0293 0.0496,-0.0662 0.084,-0.0957 0.0344,-0.0267 0.0611,-0.0629 0.0937,-0.0918 0.002,-0.012 0.003,-0.0242 0.006,-0.0351 0.0397,-0.0703 0.0946,-0.13401 0.11915,-0.21094 h -0.002 c -0.0262,0.031 -0.0504,0.0646 -0.0781,0.0937 -0.0231,0.0243 0.0198,-0.0634 0.0293,-0.0957 0.0163,6.8e-4 0.05,-0.0114 0.0488,0.002 0.14312,-0.16933 0.27222,-0.35528 0.41016,-0.5293 9.3e-4,-0.002 2e-4,-0.002 0.002,-0.004 0.013,-0.0278 0.0168,-0.0379 0.0254,-0.0566 h 0.002 c 0.056,-0.12704 0.11413,-0.25242 0.1914,-0.36719 0.0732,-0.10876 0.20758,-0.16164 0.30078,-0.25391 0.0209,-0.0207 -0.002,-0.0625 0.0156,-0.0859 0.0845,-0.11282 0.17567,-0.2219 0.26367,-0.33204 -0.28761,0.10872 0.75728,-0.65436 0.48047,-0.46484 -0.0529,0.0361 -0.094,0.089 -0.15039,0.11914 -0.014,0.007 0.004,-0.0316 0.0117,-0.0449 0.1048,-0.16167 0.21892,-0.31786 0.32812,-0.47656 0.19235,-0.24966 0.46196,-0.41349 0.67578,-0.63868 0.005,-0.004 0.0147,-0.022 0.0215,-0.0312 -0.0487,0.15818 -0.0859,0.34035 0.0215,0.19141 0.24046,-0.33355 0.39172,-0.72261 0.58789,-1.08398 0.11162,-0.0404 0.21954,-0.0982 0.33594,-0.1211 0.0619,-0.0121 0.12466,-0.0173 0.1875,-0.0234 0.0305,-0.0761 0.0592,-0.15336 0.0918,-0.22851 0.36362,-0.1071 0.48125,-0.17294 0.61718,-0.1875 0.004,-0.0157 0.005,-0.0212 0.01,-0.0391 0.23712,-1.02627 0.87641,-0.61897 1.44922,-0.6543 0.14761,-0.009 -0.44307,0.0299 -0.42774,-0.11719 -0.0137,0.0136 -0.0503,0.0578 -0.041,0.041 0.13243,-0.22819 0.45049,-0.59962 0.66211,-0.73242 0.18653,-0.11714 0.3879,-0.20837 0.58203,-0.3125 0.005,-0.002 0.0142,-0.008 0.0195,-0.01 0.0349,-0.12316 0.0743,-0.24405 0.13281,-0.35742 0.0661,-0.12801 0.46773,-0.38496 0.61133,-0.48242 0.0494,-0.0283 0.0935,-0.0668 0.14649,-0.0859 0.0249,-0.0445 0.0492,-0.0885 0.0742,-0.13281 0.16115,-0.2143 0.14387,-0.21483 0.36914,-0.40625 -0.12512,0.13003 -0.1924,0.22216 0.33399,-0.50782 0.28246,-0.30436 0.37766,-0.54266 0.73633,-0.81445 0.0749,-0.1843 0.13627,-0.33618 0.17578,-0.43945 -0.0378,0.17383 0.002,0.27348 0.375,-0.21289 0.0462,-0.0603 -0.16452,0.10318 -0.22266,0.0547 -0.0523,-0.0439 0.0138,-0.14055 0.0488,-0.19921 0.13763,-0.23024 0.31004,-0.43913 0.46484,-0.65821 0.17755,-0.13771 0.30693,-0.2558 0.46875,-0.35351 0.003,-0.006 0.005,-0.0116 0.008,-0.0176 l -0.0274,-0.0293 c 0.0275,-0.028 0.0526,-0.0579 0.0801,-0.0859 0.01,-0.0213 0.02,-0.0441 0.0293,-0.0645 0.0551,-0.0738 0.0948,-0.16439 0.16601,-0.22265 0.0692,-0.0566 0.1434,-0.10784 0.21875,-0.15625 0.08,-0.0819 0.15452,-0.16801 0.23438,-0.25 0.0546,-0.0727 0.11596,-0.13976 0.18555,-0.19922 0.0923,-0.095 0.17934,-0.19396 0.27148,-0.28907 -0.0621,-0.0134 -0.0759,-0.0271 0.0391,-0.043 45.63545,-47.12729 70.94729,-110.31632 70.36328,-175.95704 -0.589,-66.25145 -27.46851,-129.54599 -74.72851,-175.97265 C 517.29294,68.339599 453.52125,42.590351 387.28125,43.179688 Z M 557.75977,478.50391 c -0.008,0.0192 -0.019,0.0374 -0.0273,0.0566 0.0161,-0.0203 0.0342,-0.0389 0.0508,-0.0586 -0.008,10e-4 -0.0159,-1.4e-4 -0.0234,0.002 z m -7.84571,6.72461 c -0.006,0.0201 -0.015,0.0462 -0.0234,0.0703 0.0264,-0.0269 0.0531,-0.0537 0.0801,-0.0801 -0.0186,0.004 -0.0362,0.004 -0.0566,0.01 z m -3.00976,2.26953 c -0.0204,0.0292 -0.0347,0.0531 -0.0566,0.084 10e-4,0.008 0.002,0.0169 0.004,0.0254 0.45159,-0.2125 0.44424,-0.20362 0.0527,-0.10937 z M 383.87305,74.740234 c 15.68686,-0.298271 31.45755,1.080938 47.04297,4.179688 49.87466,9.921867 94.76591,36.822338 127.03125,76.124998 32.26533,39.30667 49.90677,88.58507 49.91211,139.42774 -0.0104,58.33866 -23.18818,114.2812 -64.4375,155.5332 l -0.008,0.008 c -35.96933,35.94267 -83.28786,58.30606 -133.89453,63.27539 -50.604,4.974 -101.368,-7.76055 -143.63867,-36.02148 -42.276,-28.26 -73.44793,-70.30156 -88.19727,-118.96289 -14.75466,-48.66667 -12.18417,-100.93726 7.2793,-147.91992 19.46347,-46.98267 54.61498,-85.75581 99.45899,-109.73047 30.83391,-16.479073 64.94006,-25.257868 99.45117,-25.914066 z M 566.31641,470.06641 c -0.0204,0.0146 -0.0433,0.0273 -0.0625,0.043 -0.0168,0.0764 -0.0832,0.29878 -0.0488,0.22851 0.0499,-0.11925 0.0708,-0.17297 0.11133,-0.27148 z m 2.12109,2.03125 c 0.008,0.0526 0.0158,0.1054 0.0215,0.1582 0.005,-0.003 0.009,-0.005 0.0137,-0.008 0.0543,-0.0488 0.10802,-0.0977 0.16211,-0.14649 -0.047,-0.007 -0.10446,-0.009 -0.17774,-0.004 -0.006,4.6e-4 -0.013,1.2e-4 -0.0195,0 z m -0.0312,0.008 c -0.0241,0.0103 -0.0459,0.0211 -0.0703,0.0312 -0.0742,0.11735 -0.15049,0.23434 -0.23242,0.34375 0.0521,-0.0309 0.1039,-0.0623 0.15429,-0.0957 0.052,-0.0917 0.10118,-0.18534 0.14844,-0.2793 z m -4.44141,0.65234 c -0.0329,0.0194 -0.0641,0.0415 -0.0859,0.0723 -0.0983,0.13944 -0.16747,0.65906 -0.0957,0.5039 0.0842,-0.18238 0.1305,-0.38061 0.18164,-0.57617 z m -3.08593,2.5 c -0.0456,0.026 -0.0901,0.0545 -0.13086,0.0879 -0.0836,0.0685 -0.1106,0.41316 -0.0586,0.31836 0.0721,-0.1315 0.13156,-0.26781 0.18946,-0.40625 z m -6.94727,6.99805 c -0.0361,0.007 -0.17232,0.0539 -0.22852,0.0684 -0.003,0.003 -0.01,0.0111 -0.0137,0.0156 0.0804,-0.0222 0.16496,-0.0352 0.23828,-0.0742 0.0171,-0.009 0.0143,-0.01 0.004,-0.01 z m -4.09375,3.0957 c -0.0198,0.002 -0.04,0.002 -0.0586,0.006 -0.0172,0.0357 -0.0331,0.0639 -0.0488,0.10156 0.003,1.4e-4 0.005,-1.3e-4 0.008,0 0.002,-0.003 -4.4e-4,-0.009 0.004,-0.0117 0.0293,-0.0343 0.0648,-0.0629 0.0957,-0.0957 z m -0.11523,0.0215 c -0.019,0.008 -0.0374,0.0183 -0.0527,0.0312 -0.0147,0.013 -0.0304,0.033 -0.0469,0.0527 0.0187,1.9e-4 0.0349,-5.4e-4 0.0527,0 0.0159,-0.0278 0.0309,-0.0562 0.0469,-0.084 z m -1.59571,1.18164 c -0.0944,0.0374 -0.18464,0.0799 -0.24609,0.1582 -0.087,0.11092 -0.15143,0.40081 -0.1582,0.56641 0.0572,-0.0473 0.1015,-0.0853 0.16406,-0.13477 0.029,-0.0726 0.0655,-0.14792 0.0469,-0.0996 -0.0234,0.0605 -0.0296,0.0702 -0.041,0.0957 0.0116,-0.009 0.0259,-0.0204 0.0371,-0.0293 0.0815,-0.17713 0.13857,-0.36672 0.19726,-0.55664 z m -0.23437,0.58593 c -0.002,10e-4 -0.004,0.003 -0.006,0.004 -0.009,0.0224 -0.0161,0.0429 -0.0215,0.0606 0.004,-0.007 0.0199,-0.0473 0.0273,-0.0645 z m 0.77344,-0.53124 c -0.0161,0.006 -0.033,0.01 -0.0488,0.0156 0.0141,0.0906 0.0198,0.11524 0.0254,0.11328 0.001,-0.002 0.003,-0.004 0.004,-0.006 0.005,-0.0167 0.0104,-0.0545 0.0195,-0.12304 z m 6.42578,0.0664 c -0.001,0.002 -0.003,0.004 -0.004,0.006 0.004,-0.009 -0.008,0.0744 -0.002,0.0566 0.007,-0.0197 -0.001,-0.0426 0.006,-0.0625 z m 3.35937,0.34961 c -0.0652,0.004 -0.0972,0.009 -0.14648,0.0137 -0.0139,0.0541 -0.0253,0.10207 -0.0371,0.15235 0.0134,10e-4 0.026,-0.001 0.0391,0.002 0.0487,-0.0393 0.0986,-0.0773 0.14453,-0.11914 0.002,-0.011 0.009,-0.0364 0.0117,-0.0488 -0.003,1.7e-4 -0.009,-1.7e-4 -0.0117,0 z m -7.88476,1.99023 c -0.0203,0.003 -0.0448,0.009 -0.0684,0.0137 -0.008,0.0275 0.0122,0.0132 0.002,0.043 0.0213,-0.0202 0.0446,-0.0373 0.0664,-0.0566 z m 33.24609,43.63282 c -0.006,0.0141 -0.0114,0.0288 -0.0176,0.043 0.01,-0.008 0.0195,-0.0156 0.0293,-0.0234 -0.004,-0.007 -0.008,-0.0131 -0.0117,-0.0195 z m 187.83398,94.9707 c 0.32118,1.55793 0.64903,3.17725 0.97071,4.74414 0.0305,-1.20761 0.0566,-2.41541 0.0879,-3.62305 z" />
    <use
       x="70"
       y="644"
       xlink:href="#v"
       id="use367" />
    <use
       x="90.550781"
       y="644"
       xlink:href="#c"
       id="use369" />
    <use
       x="104.359375"
       y="644"
       xlink:href="#a"
       id="use371" />
    <use
       x="123.347656"
       y="644"
       xlink:href="#f"
       id="use373" />
    <use
       x="142.242188"
       y="644"
       xlink:href="#b"
       id="use375" />
    <use
       x="155.628906"
       y="644"
       xlink:href="#a"
       id="use377" />
    <use
       x="174.617188"
       y="644"
       xlink:href="#j"
       id="use379" />
    <use
       x="204.410156"
       y="644"
       xlink:href="#i"
       id="use381" />
    <use
       x="224.453125"
       y="644"
       xlink:href="#e"
       id="use383" />
    <use
       x="252.453125"
       y="644"
       xlink:href="#h"
       id="use385" />
    <use
       x="275.695312"
       y="644"
       xlink:href="#f"
       id="use387" />
    <use
       x="294.585938"
       y="644"
       xlink:href="#u"
       id="use389" />
    <use
       x="304.1875"
       y="644"
       xlink:href="#t"
       id="use391" />
    <use
       x="313.78125"
       y="644"
       xlink:href="#e"
       id="use393" />
    <use
       x="332.035156"
       y="644"
       xlink:href="#g"
       id="use395" />
    <use
       x="352.554688"
       y="644"
       xlink:href="#s"
       id="use397" />
    <use
       x="70"
       y="672"
       xlink:href="#r"
       id="use399" />
    <use
       x="82.183594"
       y="672"
       xlink:href="#c"
       id="use401" />
    <use
       x="95.992188"
       y="672"
       xlink:href="#d"
       id="use403" />
    <use
       x="115.226562"
       y="672"
       xlink:href="#q"
       id="use405" />
    <use
       x="154.152344"
       y="672"
       xlink:href="#b"
       id="use407" />
    <use
       x="167.535156"
       y="672"
       xlink:href="#p"
       id="use409" />
    <use
       x="187.46875"
       y="672"
       xlink:href="#a"
       id="use411" />
    <use
       x="216.207031"
       y="672"
       xlink:href="#o"
       id="use413" />
    <use
       x="239.640625"
       y="672"
       xlink:href="#d"
       id="use415" />
    <use
       x="258.878906"
       y="672"
       xlink:href="#n"
       id="use417" />
    <use
       x="278.8125"
       y="672"
       xlink:href="#m"
       id="use419" />
    <use
       x="308.492188"
       y="672"
       xlink:href="#g"
       id="use421" />
    <use
       x="329.015625"
       y="672"
       xlink:href="#c"
       id="use423" />
    <use
       x="342.820312"
       y="672"
       xlink:href="#d"
       id="use425" />
    <use
       x="362.058594"
       y="672"
       xlink:href="#l"
       id="use427" />
    <use
       x="371.65625"
       y="672"
       xlink:href="#a"
       id="use429" />
    <use
       x="390.648438"
       y="672"
       xlink:href="#k"
       id="use431" />
    <use
       x="407.242188"
       y="672"
       xlink:href="#b"
       id="use433" />
  </g>
  <g
     inkscape:groupmode="layer"
     id="layer1"
     inkscape:label="Layer 1" />
</svg>
